<svg xmlns="http://www.w3.org/2000/svg" width="40" height="40" viewBox="0 0 40 40">
  <path d="M35,15.5c0,1.2671-1.8358,2.276-2.1482,3.4446-.3232,1.2091.7527,2.9988.14,4.0574-.6212,1.0737-2.7148,1.0327-3.5863,1.9041s-.83,2.9649-1.904,3.5861c-1.0585.6124-2.8481-.4635-4.0571-.14C22.276,28.6642,21.2671,30.5,20,30.5s-2.276-1.8358-3.4446-2.1482c-1.2091-.3232-2.9988.7527-4.0574.14-1.0737-.6212-1.0327-2.7148-1.9041-3.5863s-2.9649-.83-3.5861-1.904c-.6124-1.0585.4635-2.8481.14-4.0571C6.8358,17.776,5,16.7671,5,15.5s1.8358-2.276,2.1482-3.4446c.3232-1.2091-.7527-2.9988-.14-4.0574.6212-1.0737,2.7148-1.0327,3.5863-1.9041s.83-2.9649,1.904-3.5861c1.0585-.6124,2.8481.4635,4.0571.14C17.724,2.3358,18.7329.5,20,.5s2.276,1.8358,3.4446,2.1482c1.2091.3232,2.9988-.7527,4.0574-.14,1.0737.6212,1.0327,2.7148,1.9041,3.5863s2.9649.83,3.5861,1.904c.6124,1.0585-.4635,2.8481-.14,4.0571C33.1642,13.224,35,14.2329,35,15.5ZM20,21s4.5-2.5366,4.5-6.5A2.5294,2.5294,0,0,0,22,12a2.2834,2.2834,0,0,0-2,1,2.2834,2.2834,0,0,0-2-1,2.5294,2.5294,0,0,0-2.5,2.5C15.5,18.4634,20,21,20,21Z" fill="none" stroke="#000" stroke-linecap="round" stroke-linejoin="round" stroke-width="1.3"/>
  <path d="M30.59,24.26,36.5,34.5l-5.9-1.21L28.71,39,22.76,28.69M9.41,24.26,3.5,34.5l5.9-1.21L11.29,39l5.95-10.31" fill="none" stroke="#000" stroke-linecap="round" stroke-miterlimit="10" stroke-width="1.3"/>
</svg>
