<svg xmlns="http://www.w3.org/2000/svg" width="200" height="36" viewBox="0 0 200 36">
  <path d="M35.2269,12.7431A18.0193,18.0193,0,0,1,31.58,17.9988a17.9283,17.9283,0,0,1-11.4,5.2052A15.5617,15.5617,0,0,0,32.52,25.57l2.0112-.4523A18.0951,18.0951,0,0,0,35.2269,12.7431Z" fill="#108e7e" opacity="0.5"/>
  <path d="M16.2985,23.09A18.1,18.1,0,0,1,14.32,20.749,15.4672,15.4672,0,0,0,18.84,30.73a15.6666,15.6666,0,0,0,3.804,2.7838L24.84,34.6584a17.8334,17.8334,0,0,0,5.8895-3.9249,17.4892,17.4892,0,0,0,2.3027-2.82A17.9871,17.9871,0,0,1,16.2985,23.09Z" fill="#108e7e" opacity="0.7"/>
  <path d="M17.1505,32.4266A18.0715,18.0715,0,0,1,18.84,5.46,19.22,19.22,0,0,0,8.8779,30.75q.08.1847.1644.3675l1.4819,3.2649A18.1512,18.1512,0,0,0,21.54,35.6543,17.5014,17.5014,0,0,1,17.1505,32.4266Z" fill="#108e7e" opacity="0.9"/>
  <path d="M11.2082,7.8115A21.6685,21.6685,0,0,0,6.84,32.1578,18.0239,18.0239,0,0,1,18,0a17.6219,17.6219,0,0,1,7.2,1.56A21.2983,21.2983,0,0,0,11.2082,7.8115Z" fill="#108e7e"/>
  <path d="M48,18.0483a7.8115,7.8115,0,0,1,.5752-3.11A4.8342,4.8342,0,0,1,50.1807,12.86a4.0316,4.0316,0,0,1,2.417-.7412,4.2105,4.2105,0,0,1,2.4384.6713,4.46,4.46,0,0,1,1.5313,1.9068,9.3614,9.3614,0,0,1,.7138,2.9433v1.042a9.3406,9.3406,0,0,1-.7089,2.9165A4.4075,4.4075,0,0,1,55.042,23.5a4.2754,4.2754,0,0,1-2.4658.6714,3.9011,3.9011,0,0,1-2.3955-.7681,5.0316,5.0316,0,0,1-1.6055-2.1A7.5658,7.5658,0,0,1,48,18.2739Zm2.0088.2256a6.7062,6.7062,0,0,0,.3164,2.1162,3.3316,3.3316,0,0,0,.9941,1.5308,2.6113,2.6113,0,0,0,1.751.5747,2.9161,2.9161,0,0,0,1.6279-.4189A3.1417,3.1417,0,0,0,55.7236,20.97a6.3993,6.3993,0,0,0,.6016-1.4931v-2.61a6.0388,6.0388,0,0,0-.3711-1.144,3.7518,3.7518,0,0,0-.623-.9883,2.7957,2.7957,0,0,0-.9336-.6929,3.0685,3.0685,0,0,0-1.3057-.2578,2.63,2.63,0,0,0-1.7666.58,3.3462,3.3462,0,0,0-1,1.5522,6.8606,6.8606,0,0,0-.3164,2.1323ZM55.81,7.4565h2.0088v16.5h-1.837L55.81,21.7007ZM65.9551,24.1714a5.3425,5.3425,0,0,1-2.82-.7251,4.9566,4.9566,0,0,1-1.8575-1.9927,6.17,6.17,0,0,1-.6611-2.9v-.4619a6.6756,6.6756,0,0,1,.7256-3.228,5.2154,5.2154,0,0,1,1.8906-2.041,4.6952,4.6952,0,0,1,2.4649-.7036,4.6413,4.6413,0,0,1,2.7343.7465,4.3443,4.3443,0,0,1,1.5567,2.03,7.9442,7.9442,0,0,1,.5,2.9058v.8916h-8.68V17.0815H68.48v-.15a5.225,5.225,0,0,0-.3115-1.5093,2.739,2.739,0,0,0-.8594-1.2139,2.4908,2.4908,0,0,0-1.6113-.478,2.625,2.625,0,0,0-1.5957.51,3.3309,3.3309,0,0,0-1.084,1.4825,6.337,6.337,0,0,0-.3926,2.3686v.4619a4.8491,4.8491,0,0,0,.4082,2.0142,3.4677,3.4677,0,0,0,1.1816,1.45,3.1354,3.1354,0,0,0,1.8477.5425,3.46,3.46,0,0,0,1.7832-.43A4.406,4.406,0,0,0,69.124,20.981l1.2139.9453a5.4741,5.4741,0,0,1-1.6055,1.5522A4.9637,4.9637,0,0,1,65.9551,24.1714Zm13.831-3.2979a1.7488,1.7488,0,0,0-.1875-.8,1.7249,1.7249,0,0,0-.7578-.6767,6.6244,6.6244,0,0,0-1.7187-.5425,11.2118,11.2118,0,0,1-2.2285-.6821,3.7087,3.7087,0,0,1-1.4512-1.0581,2.499,2.499,0,0,1-.51-1.6006,2.9155,2.9155,0,0,1,.5313-1.6919,3.7719,3.7719,0,0,1,1.5039-1.2354,5.1943,5.1943,0,0,1,2.2724-.4672,5.3688,5.3688,0,0,1,2.39.4887,3.6768,3.6768,0,0,1,1.52,1.3106,3.3088,3.3088,0,0,1,.5264,1.8208H79.668a1.9451,1.9451,0,0,0-.628-1.3643,2.4021,2.4021,0,0,0-1.8-.6445,3.0107,3.0107,0,0,0-1.3271.2524,1.6982,1.6982,0,0,0-.74.6446,1.5946,1.5946,0,0,0-.2315.8217,1.2949,1.2949,0,0,0,.2148.7466,1.7728,1.7728,0,0,0,.79.564,10.0069,10.0069,0,0,0,1.67.4941,10.91,10.91,0,0,1,2.3526.7735,3.4621,3.4621,0,0,1,1.375,1.1064,2.7557,2.7557,0,0,1,.4511,1.6006,2.9922,2.9922,0,0,1-.5586,1.7886,3.65,3.65,0,0,1-1.5683,1.2138,5.9647,5.9647,0,0,1-2.3741.4351,5.6244,5.6244,0,0,1-2.6-.5479,4.0349,4.0349,0,0,1-1.6113-1.4126,3.3654,3.3654,0,0,1-.5478-1.8315h2.0087a2.0964,2.0964,0,0,0,.4786,1.2944,2.3486,2.3486,0,0,0,1.041.6822,3.9016,3.9016,0,0,0,1.23.2041,3.7128,3.7128,0,0,0,1.3692-.22,1.8721,1.8721,0,0,0,.8379-.6015A1.4045,1.4045,0,0,0,79.7861,20.8735ZM84.6143,9.24a1.1747,1.1747,0,0,1,.2949-.8056,1.1116,1.1116,0,0,1,.876-.333A1.1,1.1,0,0,1,86.9775,9.24a1.1108,1.1108,0,0,1-.3066.79,1.15,1.15,0,0,1-.8857.3276,1.1193,1.1193,0,0,1-.876-.3276A1.14,1.14,0,0,1,84.6143,9.24Zm2.1591,14.7168H84.7646V12.3335h2.0088ZM89.69,18.0483a8.0291,8.0291,0,0,1,.5585-3.11,4.7263,4.7263,0,0,1,1.59-2.0786,4.0844,4.0844,0,0,1,2.4492-.7412,4.5242,4.5242,0,0,1,1.918.3813,3.8476,3.8476,0,0,1,1.3965,1.1011,5.5562,5.5562,0,0,1,.9121,1.74,10.6806,10.6806,0,0,1,.4677,2.2988v1.042a9.2578,9.2578,0,0,1-.7138,2.9165A4.4229,4.4229,0,0,1,96.7256,23.5a4.2775,4.2775,0,0,1-2.46.6714,3.9258,3.9258,0,0,1-2.4218-.7681,4.9622,4.9622,0,0,1-1.59-2.1,7.687,7.687,0,0,1-.5644-3.0293Zm9.8291-5.7148V23.71a5.1575,5.1575,0,0,1-.628,2.6211A4.145,4.145,0,0,1,97.15,27.98a5.5927,5.5927,0,0,1-2.5625.564,6.3829,6.3829,0,0,1-1.4121-.188,5.8589,5.8589,0,0,1-1.59-.6338A4.01,4.01,0,0,1,90.28,26.5239l1.042-1.1709a4.2477,4.2477,0,0,0,1.5312,1.23,3.9429,3.9429,0,0,0,1.584.3491A2.8338,2.8338,0,0,0,97.51,23.8062V14.89l.1826-2.5566Zm-7.82,5.94a6.6773,6.6773,0,0,0,.3174,2.1162,3.3223,3.3223,0,0,0,.9932,1.5308,2.6111,2.6111,0,0,0,1.751.5747,2.8869,2.8869,0,0,0,1.622-.4189,3.1551,3.1551,0,0,0,1.02-1.1065,6.3907,6.3907,0,0,0,.6016-1.4931v-2.61a6.3917,6.3917,0,0,0-.3652-1.144,3.6066,3.6066,0,0,0-.6231-.9883,2.8579,2.8579,0,0,0-.9394-.6929,3.04,3.04,0,0,0-1.295-.2578,2.6344,2.6344,0,0,0-1.7675.58,3.344,3.344,0,0,0-.9981,1.5522,6.8309,6.8309,0,0,0-.3174,2.1323Zm13.0459,5.6826h-2.0087V12.3335h1.9013l.1074,2.4814Zm-1.3105-6.2949a6.8082,6.8082,0,0,1,.6123-2.8413,4.8459,4.8459,0,0,1,1.6484-1.9765,4.257,4.257,0,0,1,2.4659-.7251,4.314,4.314,0,0,1,1.9814.4243,2.8907,2.8907,0,0,1,1.2891,1.3481,5.5617,5.5617,0,0,1,.457,2.4492v7.6162h-2.0088V16.3188a3.4935,3.4935,0,0,0-.2627-1.4716,1.6569,1.6569,0,0,0-.7793-.8111,3.17,3.17,0,0,0-2.61.0591,3.2414,3.2414,0,0,0-1.042.8594,4.0094,4.0094,0,0,0-.6768,1.2515,4.6531,4.6531,0,0,0-.2363,1.4877Z" fill="#108e7e" opacity="0.7"/>
  <path d="M123.6162,24.1714a5.3427,5.3427,0,0,1-2.82-.7251,4.9556,4.9556,0,0,1-1.8574-1.9927,6.17,6.17,0,0,1-.6612-2.9v-.4619a6.6768,6.6768,0,0,1,.7256-3.228,5.2156,5.2156,0,0,1,1.8907-2.041,4.6946,4.6946,0,0,1,2.4648-.7036,4.6418,4.6418,0,0,1,2.7344.7465,4.3435,4.3435,0,0,1,1.5566,2.03,7.9442,7.9442,0,0,1,.5,2.9058v.8916h-8.68V17.0815h6.6709v-.15a5.225,5.225,0,0,0-.3115-1.5093,2.7382,2.7382,0,0,0-.8594-1.2139,2.49,2.49,0,0,0-1.6113-.478,2.625,2.625,0,0,0-1.5957.51,3.3324,3.3324,0,0,0-1.084,1.4825,6.337,6.337,0,0,0-.3926,2.3686v.4619a4.8507,4.8507,0,0,0,.4082,2.0142,3.4679,3.4679,0,0,0,1.1817,1.45,3.1349,3.1349,0,0,0,1.8476.5425,3.46,3.46,0,0,0,1.7832-.43,4.4077,4.4077,0,0,0,1.2784-1.1494l1.2138.9453a5.4737,5.4737,0,0,1-1.6054,1.5522A4.9643,4.9643,0,0,1,123.6162,24.1714Zm13.83-3.2979a1.7488,1.7488,0,0,0-.1875-.8,1.7254,1.7254,0,0,0-.7578-.6767,6.6254,6.6254,0,0,0-1.7188-.5425,11.216,11.216,0,0,1-2.2285-.6821,3.71,3.71,0,0,1-1.4512-1.0581,2.5,2.5,0,0,1-.51-1.6006,2.9154,2.9154,0,0,1,.5312-1.6919,3.7732,3.7732,0,0,1,1.5039-1.2354,5.1951,5.1951,0,0,1,2.2725-.4672,5.3684,5.3684,0,0,1,2.39.4887,3.6762,3.6762,0,0,1,1.52,1.3106,3.3088,3.3088,0,0,1,.5264,1.8208h-2.0088a1.945,1.945,0,0,0-.6279-1.3643,2.4021,2.4021,0,0,0-1.8-.6445,3.0112,3.0112,0,0,0-1.3272.2524,1.6987,1.6987,0,0,0-.74.6446,1.5945,1.5945,0,0,0-.2314.8217,1.2949,1.2949,0,0,0,.2148.7466,1.773,1.773,0,0,0,.79.564,10.0115,10.0115,0,0,0,1.67.4941,10.9093,10.9093,0,0,1,2.3525.7735,3.4621,3.4621,0,0,1,1.375,1.1064,2.755,2.755,0,0,1,.4512,1.6006,2.9922,2.9922,0,0,1-.5586,1.7886,3.65,3.65,0,0,1-1.5684,1.2138,5.9639,5.9639,0,0,1-2.374.4351,5.6244,5.6244,0,0,1-2.6-.5479,4.0342,4.0342,0,0,1-1.6113-1.4126,3.3647,3.3647,0,0,1-.5479-1.8315h2.0088a2.0957,2.0957,0,0,0,.4785,1.2944,2.3492,2.3492,0,0,0,1.041.6822,3.9022,3.9022,0,0,0,1.2305.2041,3.7122,3.7122,0,0,0,1.3691-.22,1.871,1.871,0,0,0,.8379-.6015A1.404,1.404,0,0,0,137.4463,20.8735Zm9.47,1.6866a2.929,2.929,0,0,0,1.3106-.2955,2.6988,2.6988,0,0,0,.9882-.811,2.2155,2.2155,0,0,0,.4405-1.1709h1.9013a3.52,3.52,0,0,1-.6982,1.9175,4.8563,4.8563,0,0,1-3.9424,1.9712,4.9587,4.9587,0,0,1-2.9-.8,4.8357,4.8357,0,0,1-1.7129-2.1216,7.24,7.24,0,0,1-.5644-2.8789v-.4512a7.1813,7.1813,0,0,1,.5693-2.8842,4.8928,4.8928,0,0,1,1.7188-2.1163,5.5376,5.5376,0,0,1,5.28-.247,4.19,4.19,0,0,1,1.6114,1.5039,4.4213,4.4213,0,0,1,.6386,2.1538h-1.9013a2.974,2.974,0,0,0-.4033-1.3106,2.6086,2.6086,0,0,0-.9454-.94,2.7,2.7,0,0,0-1.3906-.3491,2.7463,2.7463,0,0,0-1.9062.623,3.3676,3.3676,0,0,0-.9786,1.5845,6.9588,6.9588,0,0,0-.2841,1.9819v.4512a7.1077,7.1077,0,0,0,.2793,1.9873,3.3028,3.3028,0,0,0,.9716,1.5845A2.7819,2.7819,0,0,0,146.916,22.56Zm14.3028-4.2539h-1.9981a5.2648,5.2648,0,0,0-2.6211.5371,1.7478,1.7478,0,0,0-.9238,1.6113,1.9541,1.9541,0,0,0,.5644,1.418,2.1942,2.1942,0,0,0,1.6485.58,3.3008,3.3008,0,0,0,2.7177-1.3427,2.1213,2.1213,0,0,0,.44-1.0957l.8593.956a2.8846,2.8846,0,0,1-.4082.999,4.8053,4.8053,0,0,1-2.1972,1.8746,4.2464,4.2464,0,0,1-1.7022.3276,4.4524,4.4524,0,0,1-2.0674-.4566,3.4156,3.4156,0,0,1-1.375-1.2407,3.4918,3.4918,0,0,1,.9288-4.5923,6.6428,6.6428,0,0,1,3.8134-.9721h2.2989Zm-.3653-2.32a2.2457,2.2457,0,0,0-.6172-1.66,2.4719,2.4719,0,0,0-1.8213-.6177,3.1147,3.1147,0,0,0-1.3056.2578,2.2106,2.2106,0,0,0-.875.6768,1.4966,1.4966,0,0,0-.3115.9131h-2.0088a2.7487,2.7487,0,0,1,.5693-1.6275,4.2343,4.2343,0,0,1,1.6064-1.3,5.4756,5.4756,0,0,1,2.4434-.51,5.537,5.537,0,0,1,2.2451.43,3.3908,3.3908,0,0,1,1.53,1.2945,3.9408,3.9408,0,0,1,.5537,2.1645v5.4141a8.012,8.012,0,0,0,.1025,1.2353,4.6517,4.6517,0,0,0,.3057,1.128v.1718h-2.0947a3.7131,3.7131,0,0,1-.2363-.9184,7.197,7.197,0,0,1-.086-1.0689Zm7.3526,12.44h-2.0088V12.3335h1.8261l.1827,2.2344Zm7.82-10.1514a8.195,8.195,0,0,1-.5264,3.0293,4.7777,4.7777,0,0,1-1.5312,2.1,3.9,3.9,0,0,1-2.4434.7681,4.5634,4.5634,0,0,1-2.5029-.6445,4.3375,4.3375,0,0,1-1.5791-1.8316,8.5378,8.5378,0,0,1-.7413-2.8091V17.64a9.1077,9.1077,0,0,1,.7471-2.9433,4.5228,4.5228,0,0,1,1.5781-1.9068,4.3433,4.3433,0,0,1,2.4659-.6713,4.06,4.06,0,0,1,2.4707.7412A4.582,4.582,0,0,1,175.5,14.9385a8.4641,8.4641,0,0,1,.5264,3.11Zm-2.0088-.2256a6.6354,6.6354,0,0,0-.3281-2.1323,3.3775,3.3775,0,0,0-1.02-1.5522,2.6782,2.6782,0,0,0-1.7783-.58,3,3,0,0,0-1.2891.2578,2.8683,2.8683,0,0,0-.9345.6929,3.7419,3.7419,0,0,0-.6289.9883,5.6737,5.6737,0,0,0-.3594,1.144V19.67a6.2674,6.2674,0,0,0,.5957,1.4126,3.0734,3.0734,0,0,0,1.0215,1.0689,2.9473,2.9473,0,0,0,1.6162.4082,2.606,2.606,0,0,0,1.7617-.5909,3.4614,3.4614,0,0,0,1.0147-1.563,6.6323,6.6323,0,0,0,.3281-2.1323Zm9.5869,6.1231a5.3425,5.3425,0,0,1-2.82-.7251,4.9556,4.9556,0,0,1-1.8574-1.9927,6.17,6.17,0,0,1-.6612-2.9v-.4619a6.6756,6.6756,0,0,1,.7256-3.228,5.2154,5.2154,0,0,1,1.8906-2.041,4.6952,4.6952,0,0,1,2.4649-.7036,4.6418,4.6418,0,0,1,2.7344.7465,4.3441,4.3441,0,0,1,1.5566,2.03,7.9442,7.9442,0,0,1,.5,2.9058v.8916h-8.68V17.0815h6.6709v-.15a5.225,5.225,0,0,0-.3115-1.5093,2.7382,2.7382,0,0,0-.8594-1.2139,2.4906,2.4906,0,0,0-1.6113-.478,2.625,2.625,0,0,0-1.5957.51,3.3309,3.3309,0,0,0-1.084,1.4825,6.337,6.337,0,0,0-.3926,2.3686v.4619a4.8507,4.8507,0,0,0,.4082,2.0142,3.4671,3.4671,0,0,0,1.1817,1.45,3.1349,3.1349,0,0,0,1.8476.5425,3.46,3.46,0,0,0,1.7832-.43,4.406,4.406,0,0,0,1.2783-1.1494l1.2139.9453a5.4741,5.4741,0,0,1-1.6055,1.5522A4.9637,4.9637,0,0,1,183.6045,24.1714Zm13.831-3.2979a1.7488,1.7488,0,0,0-.1875-.8,1.7249,1.7249,0,0,0-.7578-.6767,6.6231,6.6231,0,0,0-1.7187-.5425,11.2118,11.2118,0,0,1-2.2285-.6821,3.7087,3.7087,0,0,1-1.4512-1.0581,2.5,2.5,0,0,1-.51-1.6006,2.9155,2.9155,0,0,1,.5313-1.6919,3.7726,3.7726,0,0,1,1.5039-1.2354,5.1943,5.1943,0,0,1,2.2724-.4672,5.3688,5.3688,0,0,1,2.39.4887,3.6768,3.6768,0,0,1,1.52,1.3106,3.3088,3.3088,0,0,1,.5264,1.8208h-2.0088a1.9454,1.9454,0,0,0-.6279-1.3643,2.4025,2.4025,0,0,0-1.8-.6445,3.0107,3.0107,0,0,0-1.3271.2524,1.6987,1.6987,0,0,0-.74.6446,1.5946,1.5946,0,0,0-.2315.8217,1.2943,1.2943,0,0,0,.2149.7466,1.7718,1.7718,0,0,0,.79.564,10.01,10.01,0,0,0,1.67.4941,10.9084,10.9084,0,0,1,2.3526.7735,3.4621,3.4621,0,0,1,1.375,1.1064,2.7557,2.7557,0,0,1,.4511,1.6006,2.9922,2.9922,0,0,1-.5586,1.7886,3.65,3.65,0,0,1-1.5683,1.2138,5.9645,5.9645,0,0,1-2.374.4351,5.6238,5.6238,0,0,1-2.6-.5479,4.0352,4.0352,0,0,1-1.6114-1.4126,3.3654,3.3654,0,0,1-.5478-1.8315h2.0088a2.0957,2.0957,0,0,0,.4785,1.2944,2.3492,2.3492,0,0,0,1.041.6822,3.9022,3.9022,0,0,0,1.2305.2041,3.7126,3.7126,0,0,0,1.3691-.22,1.8721,1.8721,0,0,0,.8379-.6015A1.4045,1.4045,0,0,0,197.4355,20.8735Z" fill="#108e7e"/>
</svg>
