<svg xmlns="http://www.w3.org/2000/svg" width="172" height="30" viewBox="0 0 172 30">
  <path d="M29.3554,10.6193a15.0178,15.0178,0,0,1-3.039,4.38,14.94,14.94,0,0,1-9.5,4.3377,12.9683,12.9683,0,0,0,10.2828,1.9718l1.676-.3769A15.08,15.08,0,0,0,29.3554,10.6193Z" fill="#108e7e" opacity="0.5"/>
  <path d="M13.5817,19.2417a15.0828,15.0828,0,0,1-1.649-1.9509A12.8888,12.8888,0,0,0,15.7,25.6082a13.0539,13.0539,0,0,0,3.17,2.32l1.83.9539a14.86,14.86,0,0,0,4.9079-3.2708,14.57,14.57,0,0,0,1.919-2.35A14.9891,14.9891,0,0,1,13.5817,19.2417Z" fill="#108e7e" opacity="0.7"/>
  <path d="M14.2917,27.0221A15.06,15.06,0,0,1,15.7,4.55,16.0166,16.0166,0,0,0,7.3978,25.625q.0669.1537.137.3062L8.77,28.652a15.1271,15.1271,0,0,0,9.18,1.06A14.586,14.586,0,0,1,14.2917,27.0221Z" fill="#108e7e" opacity="0.9"/>
  <path d="M9.34,6.51A18.057,18.057,0,0,0,5.7,26.7982,15.02,15.02,0,0,1,15,0a14.6833,14.6833,0,0,1,6,1.3A17.7489,17.7489,0,0,0,9.34,6.51Z" fill="#108e7e"/>
  <path d="M40,15.042a6.75,6.75,0,0,1,.4971-2.6856,4.17,4.17,0,0,1,1.3867-1.7959,3.4827,3.4827,0,0,1,2.0869-.64,3.6325,3.6325,0,0,1,2.1064.58,3.8484,3.8484,0,0,1,1.3223,1.6465,8.0423,8.0423,0,0,1,.6162,2.542v.8994a8.0745,8.0745,0,0,1-.6113,2.5195A3.8146,3.8146,0,0,1,46.082,19.75a3.69,3.69,0,0,1-2.1289.58,3.3744,3.3744,0,0,1-2.0693-.6631,4.3427,4.3427,0,0,1-1.3867-1.8145A6.54,6.54,0,0,1,40,15.2363Zm1.7354.1943a5.7845,5.7845,0,0,0,.2734,1.8282,2.8758,2.8758,0,0,0,.8584,1.3222,2.2583,2.2583,0,0,0,1.5117.4961,2.5193,2.5193,0,0,0,1.4063-.3623,2.7223,2.7223,0,0,0,.8857-.9551,5.5258,5.5258,0,0,0,.5195-1.29V14.0215a5.2318,5.2318,0,0,0-.32-.9883,3.265,3.265,0,0,0-.5381-.8535,2.4211,2.4211,0,0,0-.8066-.5986,2.6477,2.6477,0,0,0-1.127-.2227,2.2734,2.2734,0,0,0-1.5263.501A2.8827,2.8827,0,0,0,42.0088,13.2a5.9108,5.9108,0,0,0-.2734,1.8418Zm5.01-9.3418h1.7354v14.25H46.8936l-.1485-1.9482ZM55.5078,20.33a4.6166,4.6166,0,0,1-2.4355-.626,4.2826,4.2826,0,0,1-1.6045-1.7217,5.332,5.332,0,0,1-.57-2.5049v-.3984a5.7713,5.7713,0,0,1,.6259-2.7881,4.5075,4.5075,0,0,1,1.6328-1.7627,4.0525,4.0525,0,0,1,2.129-.6074,4.007,4.007,0,0,1,2.3613.6445,3.7549,3.7549,0,0,1,1.3447,1.7539,6.8608,6.8608,0,0,1,.4317,2.5088v.7705H51.9268V14.207h5.7617v-.13a4.5493,4.5493,0,0,0-.27-1.3037,2.356,2.356,0,0,0-.7421-1.0478,2.1488,2.1488,0,0,0-1.3916-.4131,2.2629,2.2629,0,0,0-1.378.44,2.8788,2.8788,0,0,0-.9365,1.28,5.4618,5.4618,0,0,0-.3389,2.0459v.3984a4.1922,4.1922,0,0,0,.3526,1.74,2.9986,2.9986,0,0,0,1.02,1.2519,2.7074,2.7074,0,0,0,1.5957.4688,2.9922,2.9922,0,0,0,1.54-.3711,3.8109,3.8109,0,0,0,1.1045-.9932l1.0479.8164a4.7167,4.7167,0,0,1-1.3868,1.3408A4.28,4.28,0,0,1,55.5078,20.33Zm11.9443-2.8487a1.5118,1.5118,0,0,0-.1621-.69,1.4864,1.4864,0,0,0-.6543-.5849,5.7568,5.7568,0,0,0-1.4843-.4688,9.6914,9.6914,0,0,1-1.9248-.5889,3.2,3.2,0,0,1-1.253-.914,2.1549,2.1549,0,0,1-.44-1.3819,2.5111,2.5111,0,0,1,.459-1.4609,3.2535,3.2535,0,0,1,1.2988-1.0674,4.4911,4.4911,0,0,1,1.9629-.4033,4.6368,4.6368,0,0,1,2.0635.4219,3.1861,3.1861,0,0,1,1.3135,1.1318,2.8583,2.8583,0,0,1,.4541,1.5723H67.35a1.6772,1.6772,0,0,0-.542-1.1778,2.0725,2.0725,0,0,0-1.5537-.5566,2.5912,2.5912,0,0,0-1.1465.2178,1.468,1.468,0,0,0-.64.5566,1.3724,1.3724,0,0,0-.2.71,1.1268,1.1268,0,0,0,.1855.6445,1.5379,1.5379,0,0,0,.6826.4873,8.674,8.674,0,0,0,1.4424.4268,9.4,9.4,0,0,1,2.0313.6679,2.9908,2.9908,0,0,1,1.1875.9551,2.3831,2.3831,0,0,1,.3906,1.3828,2.5879,2.5879,0,0,1-.4824,1.5449A3.1544,3.1544,0,0,1,67.35,19.9541a5.14,5.14,0,0,1-2.05.376,4.8568,4.8568,0,0,1-2.2451-.4737,3.4834,3.4834,0,0,1-1.3916-1.22,2.9091,2.9091,0,0,1-.4736-1.582h1.7353a1.8084,1.8084,0,0,0,.4131,1.1182,2.029,2.029,0,0,0,.8994.5888,3.3518,3.3518,0,0,0,1.0625.1768,3.2074,3.2074,0,0,0,1.1826-.1905,1.6252,1.6252,0,0,0,.7237-.52A1.2169,1.2169,0,0,0,67.4521,17.4814Zm4.17-10.0468a1.014,1.014,0,0,1,.2549-.6963.9578.9578,0,0,1,.7558-.2871.949.949,0,0,1,1.03.9834.9608.9608,0,0,1-.2647.6816.9969.9969,0,0,1-.7656.2832.9659.9659,0,0,1-.7558-.2832A.9826.9826,0,0,1,71.6221,7.4346Zm1.8642,12.71H71.752V10.1064h1.7343Zm2.5186-5.1025a6.9314,6.9314,0,0,1,.4824-2.6856A4.081,4.081,0,0,1,77.86,10.5605a3.5277,3.5277,0,0,1,2.1152-.64,3.8985,3.8985,0,0,1,1.6562.3291,3.3176,3.3176,0,0,1,1.2061.9512,4.8073,4.8073,0,0,1,.7881,1.5029A9.2369,9.2369,0,0,1,84.03,14.69v.8994a8.021,8.021,0,0,1-.6172,2.5195,3.8269,3.8269,0,0,1-1.332,1.6416,3.691,3.691,0,0,1-2.1241.58,3.3962,3.3962,0,0,1-2.0918-.6631,4.2939,4.2939,0,0,1-1.373-1.8145,6.6438,6.6438,0,0,1-.4873-2.6162Zm8.4883-4.9356v9.8243a4.45,4.45,0,0,1-.542,2.2636,3.5771,3.5771,0,0,1-1.503,1.4248,4.8332,4.8332,0,0,1-2.2128.4864,5.4891,5.4891,0,0,1-1.22-.1621,5.0761,5.0761,0,0,1-1.373-.5469,3.4731,3.4731,0,0,1-1.128-1.0352l.9-1.0107a3.6746,3.6746,0,0,0,1.3223,1.0625,3.412,3.412,0,0,0,1.3682.3008,2.4467,2.4467,0,0,0,2.6533-2.6993v-7.7l.1582-2.2081Zm-6.7539,5.13a5.7841,5.7841,0,0,0,.2744,1.8282,2.86,2.86,0,0,0,.8584,1.3222,2.2565,2.2565,0,0,0,1.5117.4961,2.49,2.49,0,0,0,1.4-.3623,2.7284,2.7284,0,0,0,.8818-.9551,5.5258,5.5258,0,0,0,.52-1.29V14.0215a5.5126,5.5126,0,0,0-.3154-.9883,3.1182,3.1182,0,0,0-.5381-.8535,2.4706,2.4706,0,0,0-.8115-.5986,2.6252,2.6252,0,0,0-1.1182-.2227,2.2736,2.2736,0,0,0-1.5263.501A2.8811,2.8811,0,0,0,78.0137,13.2a5.9105,5.9105,0,0,0-.2744,1.8418Zm11.267,4.9082H87.272V10.1064h1.6426l.0917,2.1426ZM87.8755,14.708a5.8688,5.8688,0,0,1,.5283-2.4541,4.1825,4.1825,0,0,1,1.4238-1.707,3.68,3.68,0,0,1,2.13-.626,3.7293,3.7293,0,0,1,1.711.3662,2.5,2.5,0,0,1,1.1132,1.1641,4.81,4.81,0,0,1,.3946,2.1152v6.5781H93.4419V13.5479a3.0083,3.0083,0,0,0-.2275-1.2706,1.43,1.43,0,0,0-.6729-.7,2.73,2.73,0,0,0-2.2539.0508,2.8023,2.8023,0,0,0-.9.7422,3.459,3.459,0,0,0-.584,1.0811,3.9852,3.9852,0,0,0-.2051,1.2842Z" fill="#108e7e" opacity="0.7"/>
  <path d="M105.61,20.33a4.6172,4.6172,0,0,1-2.4356-.626,4.2833,4.2833,0,0,1-1.6045-1.7217,5.3332,5.3332,0,0,1-.57-2.5049v-.3984a5.77,5.77,0,0,1,.626-2.7881,4.5068,4.5068,0,0,1,1.6328-1.7627,4.0521,4.0521,0,0,1,2.1289-.6074,4.007,4.007,0,0,1,2.3613.6445,3.7557,3.7557,0,0,1,1.3448,1.7539,6.8629,6.8629,0,0,1,.4316,2.5088v.7705h-7.4961V14.207h5.7617v-.13a4.5491,4.5491,0,0,0-.2695-1.3037,2.3562,2.3562,0,0,0-.7422-1.0478,2.1484,2.1484,0,0,0-1.3916-.4131,2.2628,2.2628,0,0,0-1.3779.44,2.8782,2.8782,0,0,0-.9366,1.28,5.4639,5.4639,0,0,0-.3388,2.0459v.3984a4.1937,4.1937,0,0,0,.3525,1.74,2.9993,2.9993,0,0,0,1.02,1.2519,2.7076,2.7076,0,0,0,1.5957.4688,2.9923,2.9923,0,0,0,1.54-.3711,3.8122,3.8122,0,0,0,1.1045-.9932l1.0478.8164a4.7175,4.7175,0,0,1-1.3867,1.3408A4.2806,4.2806,0,0,1,105.61,20.33Zm11.9443-2.8487a1.5131,1.5131,0,0,0-.1621-.69,1.487,1.487,0,0,0-.6543-.5849,5.7577,5.7577,0,0,0-1.4844-.4688,9.6914,9.6914,0,0,1-1.9248-.5889,3.1984,3.1984,0,0,1-1.2529-.914,2.1544,2.1544,0,0,1-.4405-1.3819,2.5118,2.5118,0,0,1,.459-1.4609,3.2545,3.2545,0,0,1,1.2989-1.0674,4.49,4.49,0,0,1,1.9628-.4033,4.6362,4.6362,0,0,1,2.0635.4219,3.1849,3.1849,0,0,1,1.3135,1.1318,2.8583,2.8583,0,0,1,.4541,1.5723h-1.7354a1.6771,1.6771,0,0,0-.5419-1.1778,2.0726,2.0726,0,0,0-1.5538-.5566,2.59,2.59,0,0,0-1.1464.2178,1.4677,1.4677,0,0,0-.64.5566,1.3724,1.3724,0,0,0-.2.71,1.1261,1.1261,0,0,0,.1856.6445,1.5374,1.5374,0,0,0,.6826.4873,8.671,8.671,0,0,0,1.4424.4268,9.3991,9.3991,0,0,1,2.0312.6679,2.9908,2.9908,0,0,1,1.1875.9551,2.3824,2.3824,0,0,1,.3906,1.3828,2.5879,2.5879,0,0,1-.4824,1.5449,3.1532,3.1532,0,0,1-1.3555,1.0479,5.14,5.14,0,0,1-2.05.376,4.8571,4.8571,0,0,1-2.2451-.4737,3.4841,3.4841,0,0,1-1.3916-1.22,2.9091,2.9091,0,0,1-.4736-1.582h1.7353a1.8084,1.8084,0,0,0,.4131,1.1182,2.03,2.03,0,0,0,.8994.5888,3.3518,3.3518,0,0,0,1.0625.1768,3.208,3.208,0,0,0,1.1827-.1905,1.6254,1.6254,0,0,0,.7236-.52A1.2164,1.2164,0,0,0,117.5547,17.4814Zm8.1787,1.4571a2.5356,2.5356,0,0,0,1.1318-.2549,2.343,2.343,0,0,0,.8536-.7012,1.9144,1.9144,0,0,0,.3808-1.0107h1.6416a3.0413,3.0413,0,0,1-.6025,1.6562,4.1967,4.1967,0,0,1-3.4053,1.7022,4.283,4.283,0,0,1-2.5049-.6914,4.1809,4.1809,0,0,1-1.48-1.8321,6.26,6.26,0,0,1-.4873-2.4863v-.39a6.2019,6.2019,0,0,1,.4922-2.4912,4.21,4.21,0,0,1,1.4844-1.8272,4.7814,4.7814,0,0,1,4.56-.2139,3.6271,3.6271,0,0,1,1.3916,1.2989,3.8166,3.8166,0,0,1,.5517,1.86H128.1a2.5719,2.5719,0,0,0-.3486-1.1318,2.2509,2.2509,0,0,0-.8164-.8115,2.33,2.33,0,0,0-1.2012-.3018,2.3733,2.3733,0,0,0-1.6465.5381,2.9005,2.9005,0,0,0-.8447,1.3682,5.9911,5.9911,0,0,0-.2461,1.7119v.39a6.1339,6.1339,0,0,0,.2422,1.7158,2.8488,2.8488,0,0,0,.8388,1.3692A2.404,2.404,0,0,0,125.7334,18.9385Zm12.3525-3.6739H136.36a4.5411,4.5411,0,0,0-2.2637.4639,1.51,1.51,0,0,0-.7979,1.3916,1.6886,1.6886,0,0,0,.4873,1.2246,1.8961,1.8961,0,0,0,1.4239.501,2.8472,2.8472,0,0,0,2.3466-1.16,1.8289,1.8289,0,0,0,.3809-.9462l.7422.8261a2.4887,2.4887,0,0,1-.3526.8623,4.1391,4.1391,0,0,1-1.8974,1.6192,3.6678,3.6678,0,0,1-1.4707.2832,3.848,3.848,0,0,1-1.7852-.3946,2.9574,2.9574,0,0,1-1.1875-1.0712,2.776,2.776,0,0,1-.4218-1.503,2.7959,2.7959,0,0,1,1.2246-2.4629,5.7279,5.7279,0,0,1,3.2929-.84h1.9854Zm-.3154-2.0039a1.9382,1.9382,0,0,0-.5332-1.4336,2.1351,2.1351,0,0,0-1.5732-.5332,2.69,2.69,0,0,0-1.127.2227,1.9066,1.9066,0,0,0-.7559.584,1.2947,1.2947,0,0,0-.27.789h-1.7344a2.3725,2.3725,0,0,1,.4922-1.4052,3.6416,3.6416,0,0,1,1.3867-1.1231,4.725,4.725,0,0,1,2.11-.44,4.78,4.78,0,0,1,1.9385.3711,2.9212,2.9212,0,0,1,1.3222,1.1182,3.4035,3.4035,0,0,1,.4786,1.8691v4.6758a6.8343,6.8343,0,0,0,.0879,1.0664,4.0355,4.0355,0,0,0,.2636.9746v.1484h-1.8086a3.2235,3.2235,0,0,1-.2041-.7929,6.2285,6.2285,0,0,1-.0742-.9239Zm6.35,10.7432h-1.7344V10.1064h1.5772l.1572,1.93Zm6.7539-8.7676a7.077,7.077,0,0,1-.4541,2.6162,4.1308,4.1308,0,0,1-1.3222,1.8145,3.3755,3.3755,0,0,1-2.11.6631,3.9445,3.9445,0,0,1-2.1621-.5567,3.7462,3.7462,0,0,1-1.3633-1.582,7.4,7.4,0,0,1-.6406-2.4258V14.69a7.8944,7.8944,0,0,1,.6455-2.542A3.8933,3.8933,0,0,1,144.83,10.501a3.7451,3.7451,0,0,1,2.13-.58,3.5041,3.5041,0,0,1,2.1328.64,3.9508,3.9508,0,0,1,1.3271,1.7959,7.3076,7.3076,0,0,1,.4541,2.6856ZM149.14,15.042a5.74,5.74,0,0,0-.2832-1.8418,2.9183,2.9183,0,0,0-.8808-1.3408,2.312,2.312,0,0,0-1.5352-.501,2.5845,2.5845,0,0,0-1.1133.2227,2.4767,2.4767,0,0,0-.8076.5986,3.231,3.231,0,0,0-.5429.8535,4.88,4.88,0,0,0-.3106.9883v2.4209a5.4,5.4,0,0,0,.5147,1.2207,2.6589,2.6589,0,0,0,.8818.9228,2.5419,2.5419,0,0,0,1.3955.3526,2.2466,2.2466,0,0,0,1.5215-.5108,2.9865,2.9865,0,0,0,.8769-1.35,5.74,5.74,0,0,0,.2832-1.8418Zm8.2793,5.2881a4.6171,4.6171,0,0,1-2.4355-.626,4.2826,4.2826,0,0,1-1.6045-1.7217,5.332,5.332,0,0,1-.57-2.5049v-.3984a5.77,5.77,0,0,1,.626-2.7881,4.5068,4.5068,0,0,1,1.6328-1.7627,4.0521,4.0521,0,0,1,2.1289-.6074,4.007,4.007,0,0,1,2.3613.6445,3.7549,3.7549,0,0,1,1.3447,1.7539,6.8608,6.8608,0,0,1,.4317,2.5088v.7705h-7.4961V14.207H159.6v-.13a4.5491,4.5491,0,0,0-.27-1.3037,2.3562,2.3562,0,0,0-.7422-1.0478,2.1486,2.1486,0,0,0-1.3916-.4131,2.2628,2.2628,0,0,0-1.3779.44,2.8782,2.8782,0,0,0-.9366,1.28,5.4639,5.4639,0,0,0-.3388,2.0459v.3984a4.1937,4.1937,0,0,0,.3525,1.74,2.9993,2.9993,0,0,0,1.02,1.2519,2.7076,2.7076,0,0,0,1.5957.4688,2.9923,2.9923,0,0,0,1.54-.3711,3.8106,3.8106,0,0,0,1.1044-.9932l1.0479.8164a4.7175,4.7175,0,0,1-1.3867,1.3408A4.2807,4.2807,0,0,1,157.4189,20.33Zm11.9444-2.8487a1.5131,1.5131,0,0,0-.1621-.69,1.487,1.487,0,0,0-.6543-.5849,5.7577,5.7577,0,0,0-1.4844-.4688,9.6914,9.6914,0,0,1-1.9248-.5889,3.1984,3.1984,0,0,1-1.2529-.914,2.1544,2.1544,0,0,1-.4405-1.3819,2.5118,2.5118,0,0,1,.459-1.4609,3.2548,3.2548,0,0,1,1.2988-1.0674,4.4911,4.4911,0,0,1,1.9629-.4033,4.6365,4.6365,0,0,1,2.0635.4219,3.1849,3.1849,0,0,1,1.3135,1.1318,2.8583,2.8583,0,0,1,.4541,1.5723h-1.7354a1.6771,1.6771,0,0,0-.5419-1.1778,2.0728,2.0728,0,0,0-1.5538-.5566,2.59,2.59,0,0,0-1.1464.2178,1.4677,1.4677,0,0,0-.64.5566,1.3724,1.3724,0,0,0-.2.71,1.1261,1.1261,0,0,0,.1856.6445,1.5374,1.5374,0,0,0,.6826.4873,8.671,8.671,0,0,0,1.4424.4268,9.3991,9.3991,0,0,1,2.0312.6679,2.9908,2.9908,0,0,1,1.1875.9551,2.3824,2.3824,0,0,1,.3906,1.3828,2.5879,2.5879,0,0,1-.4824,1.5449,3.1538,3.1538,0,0,1-1.3555,1.0479,5.14,5.14,0,0,1-2.05.376,4.8571,4.8571,0,0,1-2.2451-.4737,3.4834,3.4834,0,0,1-1.3916-1.22,2.9091,2.9091,0,0,1-.4736-1.582h1.7353a1.8084,1.8084,0,0,0,.4131,1.1182,2.03,2.03,0,0,0,.8994.5888,3.3518,3.3518,0,0,0,1.0625.1768,3.208,3.208,0,0,0,1.1827-.1905,1.6254,1.6254,0,0,0,.7236-.52A1.217,1.217,0,0,0,169.3633,17.4814Z" fill="#108e7e"/>
</svg>
