<svg xmlns="http://www.w3.org/2000/svg" width="100" height="30" viewBox="0 0 100 30">
  <path d="M40.016,7.7a5.688,5.688,0,0,1,.418-2.262A3.512,3.512,0,0,1,41.6,3.93a2.928,2.928,0,0,1,1.757-.539,3.067,3.067,0,0,1,1.774.488,3.245,3.245,0,0,1,1.113,1.387,6.766,6.766,0,0,1,.52,2.14v.758a6.775,6.775,0,0,1-.516,2.121,3.2,3.2,0,0,1-1.113,1.383,3.107,3.107,0,0,1-1.793.488A2.84,2.84,0,0,1,41.6,11.6a3.658,3.658,0,0,1-1.168-1.528,5.5,5.5,0,0,1-.418-2.2Zm1.461.164a4.884,4.884,0,0,0,.23,1.539,2.419,2.419,0,0,0,.723,1.114,1.9,1.9,0,0,0,1.273.418,2.12,2.12,0,0,0,1.184-.305,2.291,2.291,0,0,0,.746-.8,4.648,4.648,0,0,0,.437-1.086v-1.9a4.415,4.415,0,0,0-.269-.832,2.781,2.781,0,0,0-.453-.719,2.027,2.027,0,0,0-.68-.5,2.232,2.232,0,0,0-.949-.187,1.914,1.914,0,0,0-1.285.421,2.43,2.43,0,0,0-.727,1.129,5.006,5.006,0,0,0-.23,1.551ZM45.7,0h1.461V12H45.82L45.7,10.359Zm7.379,12.156a3.891,3.891,0,0,1-2.051-.527,3.609,3.609,0,0,1-1.351-1.449,4.5,4.5,0,0,1-.481-2.11V7.734a4.856,4.856,0,0,1,.528-2.347A3.792,3.792,0,0,1,51.094,3.9a3.425,3.425,0,0,1,1.793-.511,3.372,3.372,0,0,1,1.988.543A3.161,3.161,0,0,1,56.008,5.41a5.8,5.8,0,0,1,.363,2.113v.649H50.059V7H54.91V6.891a3.815,3.815,0,0,0-.226-1.1,2,2,0,0,0-.625-.883,1.817,1.817,0,0,0-1.172-.348,1.9,1.9,0,0,0-1.16.372,2.419,2.419,0,0,0-.789,1.078,4.592,4.592,0,0,0-.286,1.722V8.07a3.529,3.529,0,0,0,.3,1.465,2.52,2.52,0,0,0,.86,1.055,2.28,2.28,0,0,0,1.343.394,2.519,2.519,0,0,0,1.3-.312,3.2,3.2,0,0,0,.93-.836l.883.687a3.976,3.976,0,0,1-1.168,1.129A3.608,3.608,0,0,1,53.074,12.156Zm10.059-2.4A1.269,1.269,0,0,0,63,9.176a1.242,1.242,0,0,0-.551-.492,4.8,4.8,0,0,0-1.25-.395,8.154,8.154,0,0,1-1.621-.5,2.679,2.679,0,0,1-1.054-.77,1.812,1.812,0,0,1-.372-1.164,2.114,2.114,0,0,1,.387-1.23,2.739,2.739,0,0,1,1.094-.9,3.784,3.784,0,0,1,1.652-.339,3.909,3.909,0,0,1,1.739.355,2.681,2.681,0,0,1,1.1.953,2.408,2.408,0,0,1,.383,1.324H63.047a1.413,1.413,0,0,0-.457-.992,1.748,1.748,0,0,0-1.309-.469,2.189,2.189,0,0,0-.965.184,1.25,1.25,0,0,0-.539.469,1.159,1.159,0,0,0-.168.6.936.936,0,0,0,.157.543,1.292,1.292,0,0,0,.574.411,7.293,7.293,0,0,0,1.215.359,7.928,7.928,0,0,1,1.711.563,2.518,2.518,0,0,1,1,.8,2.01,2.01,0,0,1,.328,1.164,2.179,2.179,0,0,1-.406,1.3,2.66,2.66,0,0,1-1.141.883,4.339,4.339,0,0,1-1.727.316,4.1,4.1,0,0,1-1.89-.4,2.928,2.928,0,0,1-1.172-1.028,2.442,2.442,0,0,1-.4-1.332H59.32a1.531,1.531,0,0,0,.348.942,1.711,1.711,0,0,0,.758.5,2.834,2.834,0,0,0,.894.148,2.7,2.7,0,0,0,1-.16,1.357,1.357,0,0,0,.61-.437A1.032,1.032,0,0,0,63.133,9.758ZM66.645,1.3a.854.854,0,0,1,.214-.586A.81.81,0,0,1,67.5.469a.836.836,0,0,1,.645.242.838.838,0,0,1,.222.586.812.812,0,0,1-.222.574.841.841,0,0,1-.645.238.815.815,0,0,1-.637-.238A.828.828,0,0,1,66.645,1.3ZM68.215,12H66.754V3.547h1.461Zm2.12-4.3a5.854,5.854,0,0,1,.406-2.262A3.438,3.438,0,0,1,71.9,3.93a2.968,2.968,0,0,1,1.782-.539,3.278,3.278,0,0,1,1.394.277,2.777,2.777,0,0,1,1.016.8,4.067,4.067,0,0,1,.664,1.265,7.853,7.853,0,0,1,.34,1.672v.758a6.691,6.691,0,0,1-.52,2.121,3.2,3.2,0,0,1-1.121,1.383,3.107,3.107,0,0,1-1.789.488A2.859,2.859,0,0,1,71.9,11.6a3.627,3.627,0,0,1-1.156-1.528,5.608,5.608,0,0,1-.41-2.2Zm7.148-4.156V11.82a3.745,3.745,0,0,1-.457,1.907,3.01,3.01,0,0,1-1.265,1.2,4.07,4.07,0,0,1-1.864.41A4.648,4.648,0,0,1,72.87,15.2a4.265,4.265,0,0,1-1.156-.461,2.913,2.913,0,0,1-.949-.871l.757-.851a3.1,3.1,0,0,0,1.114.894,2.865,2.865,0,0,0,1.152.254,2.25,2.25,0,0,0,1.629-.582,2.241,2.241,0,0,0,.605-1.691V5.406l.133-1.859ZM71.8,7.867a4.884,4.884,0,0,0,.23,1.539,2.427,2.427,0,0,0,.723,1.114,1.9,1.9,0,0,0,1.273.418,2.1,2.1,0,0,0,1.18-.305,2.281,2.281,0,0,0,.742-.8,4.65,4.65,0,0,0,.438-1.086v-1.9a4.715,4.715,0,0,0-.266-.832,2.606,2.606,0,0,0-.453-.719,2.063,2.063,0,0,0-.684-.5,2.207,2.207,0,0,0-.941-.187,1.916,1.916,0,0,0-1.285.421,2.438,2.438,0,0,0-.727,1.129A5.006,5.006,0,0,0,71.8,7.7ZM81.284,12H79.823V3.547h1.383l.078,1.805Zm-.953-4.578a4.963,4.963,0,0,1,.445-2.067,3.528,3.528,0,0,1,1.2-1.437,3.087,3.087,0,0,1,1.793-.527A3.145,3.145,0,0,1,85.21,3.7a2.108,2.108,0,0,1,.937.981,4.039,4.039,0,0,1,.332,1.781V12h-1.46V6.445a2.526,2.526,0,0,0-.192-1.07,1.2,1.2,0,0,0-.566-.59,2.312,2.312,0,0,0-1.9.043,2.364,2.364,0,0,0-.758.625,2.949,2.949,0,0,0-.492.91,3.4,3.4,0,0,0-.172,1.082Z" fill="#108e7e" opacity="0.7"/>
  <path d="M43.883,26.906a3.891,3.891,0,0,1-2.051-.527A3.618,3.618,0,0,1,40.48,24.93,4.5,4.5,0,0,1,40,22.82v-.336a4.867,4.867,0,0,1,.527-2.347A3.807,3.807,0,0,1,41.9,18.652a3.427,3.427,0,0,1,1.793-.511,3.374,3.374,0,0,1,1.989.543,3.165,3.165,0,0,1,1.132,1.476,5.777,5.777,0,0,1,.364,2.113v.649H40.867V21.75h4.852v-.109a3.817,3.817,0,0,0-.227-1.1,2,2,0,0,0-.625-.883,1.815,1.815,0,0,0-1.172-.348,1.909,1.909,0,0,0-1.16.372,2.426,2.426,0,0,0-.789,1.078,4.614,4.614,0,0,0-.285,1.722v.336a3.529,3.529,0,0,0,.3,1.465,2.518,2.518,0,0,0,.859,1.055,2.281,2.281,0,0,0,1.344.394,2.522,2.522,0,0,0,1.3-.312,3.214,3.214,0,0,0,.93-.836l.882.687A3.964,3.964,0,0,1,45.9,26.4,3.6,3.6,0,0,1,43.883,26.906Zm10.058-2.4a1.268,1.268,0,0,0-.136-.582,1.248,1.248,0,0,0-.551-.492A4.8,4.8,0,0,0,52,23.039a8.154,8.154,0,0,1-1.621-.5,2.683,2.683,0,0,1-1.055-.77,1.817,1.817,0,0,1-.371-1.164,2.114,2.114,0,0,1,.387-1.23,2.739,2.739,0,0,1,1.094-.9,3.781,3.781,0,0,1,1.652-.339,3.9,3.9,0,0,1,1.738.355,2.678,2.678,0,0,1,1.106.953,2.415,2.415,0,0,1,.382,1.324H53.855a1.413,1.413,0,0,0-.457-.992,1.745,1.745,0,0,0-1.308-.469,2.186,2.186,0,0,0-.965.184,1.245,1.245,0,0,0-.539.469,1.159,1.159,0,0,0-.168.6.942.942,0,0,0,.156.543,1.3,1.3,0,0,0,.574.411,7.353,7.353,0,0,0,1.215.359,7.891,7.891,0,0,1,1.711.563,2.518,2.518,0,0,1,1,.8,2,2,0,0,1,.328,1.164,2.172,2.172,0,0,1-.406,1.3,2.648,2.648,0,0,1-1.141.883,4.334,4.334,0,0,1-1.726.316,4.1,4.1,0,0,1-1.891-.4,2.941,2.941,0,0,1-1.172-1.028,2.449,2.449,0,0,1-.4-1.332h1.461a1.525,1.525,0,0,0,.348.942,1.713,1.713,0,0,0,.757.5,2.84,2.84,0,0,0,.895.148,2.707,2.707,0,0,0,1-.16,1.349,1.349,0,0,0,.609-.437A1.026,1.026,0,0,0,53.941,24.508Zm6.887,1.226a2.135,2.135,0,0,0,.953-.214,1.977,1.977,0,0,0,.719-.59,1.606,1.606,0,0,0,.32-.852H64.2a2.557,2.557,0,0,1-.508,1.395,3.527,3.527,0,0,1-2.867,1.433,3.6,3.6,0,0,1-2.109-.582,3.51,3.51,0,0,1-1.246-1.543,5.263,5.263,0,0,1-.411-2.093v-.329a5.209,5.209,0,0,1,.415-2.1,3.551,3.551,0,0,1,1.25-1.539,4.026,4.026,0,0,1,3.839-.18,3.052,3.052,0,0,1,1.172,1.094A3.205,3.205,0,0,1,64.2,21.2H62.82a2.168,2.168,0,0,0-.293-.953,1.909,1.909,0,0,0-.687-.684,1.968,1.968,0,0,0-1.012-.254,2,2,0,0,0-1.387.454,2.446,2.446,0,0,0-.711,1.152,5.087,5.087,0,0,0-.207,1.441v.329a5.159,5.159,0,0,0,.2,1.445,2.388,2.388,0,0,0,.707,1.152A2.018,2.018,0,0,0,60.828,25.734Zm10.4-3.093H69.777a3.832,3.832,0,0,0-1.906.39A1.273,1.273,0,0,0,67.2,24.2a1.425,1.425,0,0,0,.41,1.031,1.6,1.6,0,0,0,1.2.422,2.4,2.4,0,0,0,1.976-.976,1.54,1.54,0,0,0,.32-.8l.625.7a2.1,2.1,0,0,1-.3.727,3.5,3.5,0,0,1-1.6,1.363,3.085,3.085,0,0,1-1.238.238,3.24,3.24,0,0,1-1.5-.332,2.49,2.49,0,0,1-1-.9,2.538,2.538,0,0,1,.676-3.34,4.831,4.831,0,0,1,2.773-.707h1.672Zm-.265-1.688a1.634,1.634,0,0,0-.449-1.207,1.8,1.8,0,0,0-1.325-.449,2.264,2.264,0,0,0-.949.187,1.607,1.607,0,0,0-.637.493,1.088,1.088,0,0,0-.226.664H65.918a2,2,0,0,1,.414-1.184,3.068,3.068,0,0,1,1.168-.945,4.436,4.436,0,0,1,3.41-.059,2.47,2.47,0,0,1,1.113.942,2.86,2.86,0,0,1,.4,1.574v3.937a5.788,5.788,0,0,0,.074.9,3.407,3.407,0,0,0,.223.82v.125H71.2a2.715,2.715,0,0,1-.172-.668,5.223,5.223,0,0,1-.062-.777ZM76.312,30H74.851V18.3h1.328l.133,1.625ZM82,22.617a5.957,5.957,0,0,1-.383,2.2A3.476,3.476,0,0,1,80.5,26.348a2.841,2.841,0,0,1-1.777.558,3.326,3.326,0,0,1-1.821-.468,3.158,3.158,0,0,1-1.148-1.333,6.185,6.185,0,0,1-.539-2.043v-.906a6.62,6.62,0,0,1,.543-2.14,3.284,3.284,0,0,1,1.148-1.387,3.159,3.159,0,0,1,1.793-.488,2.949,2.949,0,0,1,1.8.539,3.333,3.333,0,0,1,1.117,1.511A6.16,6.16,0,0,1,82,22.453Zm-1.461-.164A4.832,4.832,0,0,0,80.3,20.9a2.462,2.462,0,0,0-.742-1.129,1.947,1.947,0,0,0-1.293-.421,2.184,2.184,0,0,0-.938.187,2.1,2.1,0,0,0-.68.5,2.741,2.741,0,0,0-.457.719,4.058,4.058,0,0,0-.261.832v2.039a4.557,4.557,0,0,0,.433,1.027,2.248,2.248,0,0,0,.742.778,2.149,2.149,0,0,0,1.176.3,1.9,1.9,0,0,0,1.282-.429,2.521,2.521,0,0,0,.738-1.137,4.824,4.824,0,0,0,.238-1.551Zm6.973,4.453a3.891,3.891,0,0,1-2.051-.527,3.618,3.618,0,0,1-1.352-1.449,4.5,4.5,0,0,1-.48-2.11v-.336a4.867,4.867,0,0,1,.527-2.347,3.807,3.807,0,0,1,1.375-1.485,3.427,3.427,0,0,1,1.793-.511,3.374,3.374,0,0,1,1.989.543,3.165,3.165,0,0,1,1.132,1.476,5.777,5.777,0,0,1,.364,2.113v.649H84.5V21.75h4.852v-.109a3.817,3.817,0,0,0-.227-1.1,2,2,0,0,0-.625-.883,1.815,1.815,0,0,0-1.172-.348,1.909,1.909,0,0,0-1.16.372,2.419,2.419,0,0,0-.789,1.078,4.614,4.614,0,0,0-.285,1.722v.336a3.529,3.529,0,0,0,.3,1.465,2.518,2.518,0,0,0,.859,1.055,2.281,2.281,0,0,0,1.344.394,2.522,2.522,0,0,0,1.3-.312,3.2,3.2,0,0,0,.929-.836l.883.687A3.964,3.964,0,0,1,89.53,26.4,3.6,3.6,0,0,1,87.511,26.906Zm10.058-2.4a1.281,1.281,0,0,0-.136-.582,1.248,1.248,0,0,0-.551-.492,4.822,4.822,0,0,0-1.25-.395,8.154,8.154,0,0,1-1.621-.5,2.683,2.683,0,0,1-1.055-.77,1.817,1.817,0,0,1-.371-1.164,2.114,2.114,0,0,1,.387-1.23,2.735,2.735,0,0,1,1.093-.9,3.788,3.788,0,0,1,1.653-.339,3.9,3.9,0,0,1,1.738.355,2.678,2.678,0,0,1,1.106.953,2.415,2.415,0,0,1,.382,1.324H97.483a1.413,1.413,0,0,0-.457-.992,1.745,1.745,0,0,0-1.308-.469,2.186,2.186,0,0,0-.965.184,1.245,1.245,0,0,0-.539.469,1.159,1.159,0,0,0-.168.6.942.942,0,0,0,.156.543,1.3,1.3,0,0,0,.574.411,7.353,7.353,0,0,0,1.215.359,7.891,7.891,0,0,1,1.711.563,2.518,2.518,0,0,1,1,.8,2,2,0,0,1,.328,1.164,2.172,2.172,0,0,1-.406,1.3,2.648,2.648,0,0,1-1.141.883,4.334,4.334,0,0,1-1.726.316,4.1,4.1,0,0,1-1.891-.4,2.941,2.941,0,0,1-1.172-1.028,2.449,2.449,0,0,1-.4-1.332h1.461a1.525,1.525,0,0,0,.347.942,1.717,1.717,0,0,0,.758.5,2.84,2.84,0,0,0,.9.148,2.707,2.707,0,0,0,1-.16,1.354,1.354,0,0,0,.609-.437A1.026,1.026,0,0,0,97.569,24.508Z" fill="#108e7e"/>
  <path d="M29.356,10.62A15,15,0,0,1,26.317,15a14.935,14.935,0,0,1-9.5,4.338A12.971,12.971,0,0,0,27.1,21.31l1.676-.377A15.075,15.075,0,0,0,29.356,10.62Z" fill="#108e7e" opacity="0.5" style="isolation: isolate"/>
  <path d="M13.582,19.243a15.208,15.208,0,0,1-1.649-1.951A12.9,12.9,0,0,0,15.7,25.61a13.069,13.069,0,0,0,3.17,2.32l1.83.954a14.859,14.859,0,0,0,4.908-3.271,14.528,14.528,0,0,0,1.919-2.35A14.989,14.989,0,0,1,13.582,19.243Z" fill="#108e7e" opacity="0.7" style="isolation: isolate"/>
  <path d="M14.292,27.024A15.067,15.067,0,0,1,15.7,4.55,16.019,16.019,0,0,0,7.4,25.627c.045.1.091.2.137.306L8.77,28.654a15.129,15.129,0,0,0,9.18,1.06A14.6,14.6,0,0,1,14.292,27.024Z" fill="#108e7e" opacity="0.9" style="isolation: isolate"/>
  <path d="M9.34,6.51A18.06,18.06,0,0,0,5.7,26.8,15.021,15.021,0,0,1,15,0a14.69,14.69,0,0,1,6,1.3A17.753,17.753,0,0,0,9.34,6.51Z" fill="#108e7e"/>
</svg>
